<?xml version="1.0" encoding="utf-8" ?>
<svg baseProfile="tiny" height="512" version="1.2" width="512" xmlns="http://www.w3.org/2000/svg" xmlns:ev="http://www.w3.org/2001/xml-events" xmlns:xlink="http://www.w3.org/1999/xlink"><defs /><rect fill="#81C784" height="128" stroke="none" width="128" x="0" y="0" /><rect fill="#66BB6A" height="128" stroke="none" width="128" x="128" y="0" /><rect fill="#4CAF50" height="128" stroke="none" width="128" x="256" y="0" /><rect fill="#66BB6A" height="128" stroke="none" width="128" x="384" y="0" /><rect fill="#66BB6A" height="128" stroke="none" width="128" x="0" y="128" /><rect fill="#4CAF50" height="128" stroke="none" width="128" x="128" y="128" /><rect fill="#66BB6A" height="128" stroke="none" width="128" x="256" y="128" /><rect fill="#4CAF50" height="128" stroke="none" width="128" x="384" y="128" /><rect fill="#8D6E63" height="128" stroke="none" width="128" x="0" y="256" /><rect fill="#795548" height="128" stroke="none" width="128" x="128" y="256" /><rect fill="#8D6E63" height="128" stroke="none" width="128" x="256" y="256" /><rect fill="#795548" height="128" stroke="none" width="128" x="384" y="256" /><rect fill="#795548" height="128" stroke="none" width="128" x="0" y="384" /><rect fill="#8D6E63" height="128" stroke="none" width="128" x="128" y="384" /><rect fill="#795548" height="128" stroke="none" width="128" x="256" y="384" /><rect fill="#388E3C" height="128" stroke="none" width="128" x="384" y="384" /><rect fill="none" height="512" opacity="0.3" stroke="#2E7D32" stroke-width="2" width="512" x="0" y="0" /><rect fill="none" height="510" opacity="0.3" stroke="#2E7D32" stroke-width="2" width="510" x="1" y="1" /></svg>